<?xml version="1.0" encoding="UTF-8"?>
<svg xmlns="http://www.w3.org/2000/svg" xmlns:xlink="http://www.w3.org/1999/xlink" width="64px" height="64px" viewBox="0 0 64 64" version="1.1">
<g id="surface1">
<path style=" stroke:none;fill-rule:evenodd;fill:rgb(93.72549%,83.921569%,35.294118%);fill-opacity:1;" d="M 19.839844 1.632812 C 19.839844 1.765625 19.871094 1.792969 20.03125 1.792969 C 20.195312 1.792969 20.222656 1.765625 20.222656 1.632812 C 20.222656 1.496094 20.195312 1.472656 20.03125 1.472656 C 19.871094 1.472656 19.839844 1.496094 19.839844 1.632812 M 31.382812 2.753906 C 31 2.832031 30.796875 2.949219 30.390625 3.339844 C 30.082031 3.636719 29.957031 3.839844 29.519531 4.738281 C 29.238281 5.320312 28.230469 7.363281 27.277344 9.28125 C 26.328125 11.199219 25.082031 13.71875 24.511719 14.878906 C 22.824219 18.308594 22.460938 19.027344 22.28125 19.273438 C 22.011719 19.640625 21.585938 19.960938 21.226562 20.0625 C 20.921875 20.152344 14.40625 21.136719 13.152344 21.285156 C 13.011719 21.300781 12.664062 21.355469 12.382812 21.40625 C 12.101562 21.457031 11.726562 21.515625 11.550781 21.535156 C 11.375 21.554688 11.042969 21.601562 10.816406 21.640625 C 10.585938 21.675781 10.285156 21.71875 10.144531 21.738281 C 10.003906 21.753906 9.613281 21.808594 9.28125 21.863281 C 8.496094 21.984375 8.175781 22.03125 6.207031 22.304688 C 4.179688 22.589844 3.941406 22.636719 3.585938 22.820312 C 3.179688 23.027344 2.734375 23.488281 2.519531 23.921875 C 2.355469 24.25 2.339844 24.355469 2.339844 24.929688 C 2.339844 25.496094 2.359375 25.605469 2.511719 25.921875 C 2.71875 26.332031 3.214844 26.832031 9.34375 32.792969 C 14.609375 37.914062 15.136719 38.441406 15.316406 38.773438 C 15.515625 39.140625 15.644531 39.78125 15.59375 40.144531 C 15.53125 40.605469 15.308594 41.925781 15.203125 42.480469 C 15.144531 42.769531 15.074219 43.1875 15.042969 43.40625 C 14.988281 43.820312 14.75 45.203125 14.527344 46.433594 C 14.457031 46.820312 14.382812 47.277344 14.363281 47.453125 C 14.34375 47.628906 14.316406 47.789062 14.300781 47.808594 C 14.285156 47.839844 14.078125 48.972656 13.980469 49.601562 C 13.96875 49.6875 13.769531 50.855469 13.539062 52.191406 C 12.617188 57.554688 12.667969 57.152344 12.835938 57.726562 C 13.171875 58.851562 14.355469 59.601562 15.46875 59.394531 C 15.847656 59.324219 16.167969 59.183594 17.246094 58.605469 C 17.601562 58.417969 18.433594 57.980469 19.105469 57.636719 C 19.773438 57.289062 20.347656 56.984375 20.382812 56.960938 C 20.417969 56.933594 20.878906 56.6875 21.40625 56.414062 C 21.9375 56.140625 22.613281 55.789062 22.910156 55.632812 C 23.210938 55.472656 23.789062 55.171875 24.191406 54.957031 C 24.597656 54.746094 25.058594 54.5 25.214844 54.414062 C 25.375 54.328125 25.980469 54.011719 26.558594 53.710938 C 27.140625 53.410156 28.078125 52.921875 28.640625 52.621094 C 29.203125 52.320312 29.835938 51.988281 30.046875 51.882812 C 30.257812 51.777344 30.476562 51.65625 30.527344 51.613281 C 30.78125 51.410156 31.507812 51.191406 31.960938 51.1875 C 32.523438 51.179688 32.734375 51.246094 33.632812 51.710938 C 34.652344 52.242188 35.441406 52.660156 35.808594 52.863281 C 35.984375 52.960938 36.617188 53.292969 37.214844 53.601562 C 37.8125 53.90625 38.808594 54.425781 39.425781 54.75 C 40.039062 55.074219 40.917969 55.535156 41.375 55.777344 C 42.375 56.296875 43.160156 56.710938 43.679688 56.992188 C 43.890625 57.105469 44.554688 57.453125 45.152344 57.761719 C 45.75 58.074219 46.527344 58.484375 46.878906 58.671875 C 47.230469 58.859375 47.667969 59.085938 47.847656 59.171875 C 48.785156 59.621094 49.765625 59.46875 50.519531 58.753906 C 50.925781 58.367188 51.199219 57.820312 51.246094 57.289062 C 51.273438 56.96875 51.117188 55.84375 50.878906 54.625 C 50.84375 54.449219 50.554688 52.761719 50.234375 50.878906 C 49.660156 47.519531 48.820312 42.605469 48.566406 41.152344 C 48.359375 39.960938 48.347656 39.625 48.511719 39.191406 C 48.761719 38.519531 48.484375 38.820312 52 35.382812 C 52.738281 34.660156 53.964844 33.464844 54.71875 32.730469 C 60.804688 26.8125 61.269531 26.34375 61.480469 25.925781 C 61.644531 25.605469 61.664062 25.503906 61.664062 24.929688 C 61.664062 24.355469 61.644531 24.25 61.480469 23.914062 C 61.191406 23.328125 60.535156 22.773438 59.964844 22.632812 C 59.777344 22.589844 56.472656 22.101562 55.777344 22.015625 C 55.53125 21.984375 55.039062 21.914062 54.6875 21.863281 C 54.335938 21.808594 53.945312 21.75 53.824219 21.734375 C 53.699219 21.71875 53.398438 21.671875 53.152344 21.632812 C 52.90625 21.59375 52.589844 21.550781 52.449219 21.53125 C 52.308594 21.515625 52.121094 21.492188 52.03125 21.476562 C 51.945312 21.460938 51.554688 21.40625 51.167969 21.351562 C 50.78125 21.296875 50.160156 21.207031 49.792969 21.148438 C 48.75 20.992188 47.253906 20.769531 45.085938 20.453125 C 43.996094 20.292969 42.945312 20.117188 42.753906 20.058594 C 42.492188 19.980469 42.3125 19.863281 42.011719 19.574219 C 41.675781 19.253906 41.546875 19.058594 41.214844 18.378906 C 40.324219 16.5625 37.4375 10.71875 36.484375 8.800781 C 35.925781 7.671875 35.132812 6.066406 34.722656 5.230469 C 34.101562 3.957031 33.925781 3.652344 33.664062 3.390625 C 33.292969 3.019531 33.121094 2.925781 32.597656 2.789062 C 32.175781 2.679688 31.808594 2.671875 31.382812 2.753906 M 5.824219 11.457031 L 5.824219 11.839844 L 6.59375 11.839844 L 6.59375 11.070312 L 5.824219 11.070312 L 5.824219 11.457031 M 44.351562 17.886719 L 44.351562 18.304688 L 45.121094 18.304688 L 45.121094 17.472656 L 44.351562 17.472656 L 44.351562 17.886719 M 5.824219 18.496094 C 5.824219 18.65625 5.847656 18.6875 5.984375 18.6875 C 6.117188 18.6875 6.144531 18.65625 6.144531 18.496094 C 6.144531 18.332031 6.117188 18.304688 5.984375 18.304688 C 5.847656 18.304688 5.824219 18.332031 5.824219 18.496094 M 8.640625 20.707031 L 8.640625 21.125 L 9.007812 21.105469 L 9.375 21.089844 L 9.394531 20.6875 L 9.414062 20.289062 L 8.640625 20.289062 L 8.640625 20.707031 M 34.453125 27.441406 C 34.28125 27.578125 34.101562 27.890625 33.378906 29.28125 C 33.066406 29.878906 32.691406 30.585938 32.542969 30.847656 C 32.398438 31.113281 32.125 31.628906 31.9375 32 C 31.632812 32.609375 30.964844 33.878906 30.144531 35.425781 C 28.441406 38.617188 28.328125 38.859375 28.378906 39.132812 C 28.472656 39.632812 28.953125 39.90625 29.40625 39.714844 C 29.65625 39.613281 29.757812 39.46875 30.253906 38.527344 C 30.464844 38.125 30.789062 37.503906 30.972656 37.152344 C 31.160156 36.800781 31.511719 36.125 31.757812 35.648438 C 32.007812 35.171875 32.273438 34.667969 32.351562 34.527344 C 32.433594 34.386719 32.691406 33.898438 32.929688 33.441406 C 33.167969 32.980469 33.636719 32.089844 33.96875 31.457031 C 35.640625 28.289062 35.664062 28.238281 35.621094 27.933594 C 35.585938 27.722656 35.527344 27.621094 35.359375 27.492188 C 35.101562 27.292969 34.667969 27.269531 34.453125 27.441406 M 24.03125 30.878906 C 23.503906 31.210938 22.929688 31.574219 22.753906 31.679688 C 21.605469 32.386719 20.878906 32.898438 20.746094 33.09375 C 20.445312 33.542969 20.71875 33.964844 21.703125 34.554688 C 22.234375 34.875 23.699219 35.820312 24.105469 36.101562 C 24.253906 36.203125 24.390625 36.289062 24.410156 36.289062 C 24.433594 36.289062 24.566406 36.363281 24.707031 36.457031 C 24.984375 36.640625 25.347656 36.679688 25.589844 36.546875 C 25.78125 36.445312 25.984375 36.105469 25.984375 35.886719 C 25.984375 35.503906 25.835938 35.371094 24.320312 34.402344 C 23.503906 33.878906 22.863281 33.433594 22.890625 33.410156 C 22.921875 33.386719 23.574219 32.964844 24.347656 32.472656 C 25.269531 31.886719 25.789062 31.519531 25.867188 31.390625 C 26.175781 30.886719 25.8125 30.273438 25.199219 30.273438 C 25.039062 30.273438 24.746094 30.425781 24.03125 30.878906 M 38.386719 30.371094 C 38.042969 30.558594 37.929688 30.984375 38.117188 31.375 C 38.203125 31.558594 38.324219 31.65625 38.84375 31.96875 C 39.128906 32.140625 41.0625 33.371094 41.109375 33.410156 C 41.15625 33.449219 39.445312 34.589844 38.570312 35.101562 C 38.042969 35.410156 37.882812 35.847656 38.140625 36.269531 C 38.386719 36.667969 38.859375 36.746094 39.292969 36.457031 C 39.433594 36.363281 39.5625 36.289062 39.578125 36.289062 C 39.597656 36.289062 39.792969 36.164062 40.011719 36.015625 C 40.234375 35.867188 40.464844 35.714844 40.523438 35.679688 C 40.886719 35.464844 42.945312 34.117188 43.101562 34 C 43.363281 33.792969 43.425781 33.351562 43.238281 33.070312 C 43.117188 32.894531 42.023438 32.148438 40.511719 31.210938 C 40.320312 31.09375 39.902344 30.832031 39.589844 30.632812 C 38.976562 30.242188 38.722656 30.1875 38.386719 30.371094 M 51.199219 45.40625 C 51.199219 45.535156 51.230469 45.566406 51.359375 45.566406 C 51.488281 45.566406 51.519531 45.535156 51.519531 45.40625 C 51.519531 45.28125 51.488281 45.246094 51.359375 45.246094 C 51.230469 45.246094 51.199219 45.28125 51.199219 45.40625 M 9.023438 46.59375 C 9.023438 46.761719 9.046875 46.785156 9.214844 46.785156 C 9.386719 46.785156 9.40625 46.761719 9.40625 46.59375 C 9.40625 46.421875 9.386719 46.398438 9.214844 46.398438 C 9.046875 46.398438 9.023438 46.421875 9.023438 46.59375 M 12.609375 47.425781 C 12.609375 47.59375 12.628906 47.617188 12.800781 47.617188 C 12.96875 47.617188 12.992188 47.59375 12.992188 47.425781 C 12.992188 47.253906 12.96875 47.230469 12.800781 47.230469 C 12.628906 47.230469 12.609375 47.253906 12.609375 47.425781 M 34.753906 55.425781 C 34.753906 55.585938 34.777344 55.617188 34.910156 55.617188 C 35.046875 55.617188 35.070312 55.585938 35.070312 55.425781 C 35.070312 55.261719 35.046875 55.230469 34.910156 55.230469 C 34.777344 55.230469 34.753906 55.261719 34.753906 55.425781 M 1.40625 57.855469 C 1.40625 58.019531 1.433594 58.046875 1.566406 58.046875 C 1.703125 58.046875 1.726562 58.019531 1.726562 57.855469 C 1.726562 57.695312 1.703125 57.664062 1.566406 57.664062 C 1.433594 57.664062 1.40625 57.695312 1.40625 57.855469 M 62.015625 62.65625 C 62.015625 62.828125 62.039062 62.847656 62.207031 62.847656 C 62.378906 62.847656 62.398438 62.828125 62.398438 62.65625 C 62.398438 62.484375 62.378906 62.464844 62.207031 62.464844 C 62.039062 62.464844 62.015625 62.484375 62.015625 62.65625 "/>
<path style=" stroke:none;fill-rule:evenodd;fill:rgb(6.666667%,5.490196%,2.745098%);fill-opacity:1;" d="M 0 32 L 0 64 L 64.03125 63.96875 L 64.0625 0 L 0 0 L 0 32 M 0.03125 32.03125 C 0.03125 49.632812 0.0390625 56.824219 0.046875 48.011719 C 0.0585938 39.199219 0.0585938 24.800781 0.046875 16.011719 C 0.0390625 7.222656 0.03125 14.433594 0.03125 32.03125 M 19.839844 1.632812 C 19.839844 1.765625 19.871094 1.792969 20.03125 1.792969 C 20.195312 1.792969 20.222656 1.765625 20.222656 1.632812 C 20.222656 1.496094 20.195312 1.472656 20.03125 1.472656 C 19.871094 1.472656 19.839844 1.496094 19.839844 1.632812 M 31.382812 2.753906 C 31 2.832031 30.796875 2.949219 30.390625 3.339844 C 30.082031 3.636719 29.957031 3.839844 29.519531 4.738281 C 29.238281 5.320312 28.230469 7.363281 27.277344 9.28125 C 26.328125 11.199219 25.082031 13.71875 24.511719 14.878906 C 22.824219 18.308594 22.460938 19.027344 22.28125 19.273438 C 22.011719 19.640625 21.585938 19.960938 21.226562 20.0625 C 20.921875 20.152344 14.40625 21.136719 13.152344 21.285156 C 13.011719 21.300781 12.664062 21.355469 12.382812 21.40625 C 12.101562 21.457031 11.726562 21.515625 11.550781 21.535156 C 11.375 21.554688 11.042969 21.601562 10.816406 21.640625 C 10.585938 21.675781 10.285156 21.71875 10.144531 21.738281 C 10.003906 21.753906 9.613281 21.808594 9.28125 21.863281 C 8.496094 21.984375 8.175781 22.03125 6.207031 22.304688 C 4.179688 22.589844 3.941406 22.636719 3.585938 22.820312 C 3.179688 23.027344 2.734375 23.488281 2.519531 23.921875 C 2.355469 24.25 2.339844 24.355469 2.339844 24.929688 C 2.339844 25.496094 2.359375 25.605469 2.511719 25.921875 C 2.71875 26.332031 3.214844 26.832031 9.34375 32.792969 C 14.609375 37.914062 15.136719 38.441406 15.316406 38.773438 C 15.515625 39.140625 15.644531 39.78125 15.59375 40.144531 C 15.53125 40.605469 15.308594 41.925781 15.203125 42.480469 C 15.144531 42.769531 15.074219 43.1875 15.042969 43.40625 C 14.988281 43.820312 14.75 45.203125 14.527344 46.433594 C 14.457031 46.820312 14.382812 47.277344 14.363281 47.453125 C 14.34375 47.628906 14.316406 47.789062 14.300781 47.808594 C 14.285156 47.839844 14.078125 48.972656 13.980469 49.601562 C 13.96875 49.6875 13.769531 50.855469 13.539062 52.191406 C 12.617188 57.554688 12.667969 57.152344 12.835938 57.726562 C 13.171875 58.851562 14.355469 59.601562 15.46875 59.394531 C 15.847656 59.324219 16.167969 59.183594 17.246094 58.605469 C 17.601562 58.417969 18.433594 57.980469 19.105469 57.636719 C 19.773438 57.289062 20.347656 56.984375 20.382812 56.960938 C 20.417969 56.933594 20.878906 56.6875 21.40625 56.414062 C 21.9375 56.140625 22.613281 55.789062 22.910156 55.632812 C 23.210938 55.472656 23.789062 55.171875 24.191406 54.957031 C 24.597656 54.746094 25.058594 54.5 25.214844 54.414062 C 25.375 54.328125 25.980469 54.011719 26.558594 53.710938 C 27.140625 53.410156 28.078125 52.921875 28.640625 52.621094 C 29.203125 52.320312 29.835938 51.988281 30.046875 51.882812 C 30.257812 51.777344 30.476562 51.65625 30.527344 51.613281 C 30.78125 51.410156 31.507812 51.191406 31.960938 51.1875 C 32.523438 51.179688 32.734375 51.246094 33.632812 51.710938 C 34.652344 52.242188 35.441406 52.660156 35.808594 52.863281 C 35.984375 52.960938 36.617188 53.292969 37.214844 53.601562 C 37.8125 53.90625 38.808594 54.425781 39.425781 54.75 C 40.039062 55.074219 40.917969 55.535156 41.375 55.777344 C 42.375 56.296875 43.160156 56.710938 43.679688 56.992188 C 43.890625 57.105469 44.554688 57.453125 45.152344 57.761719 C 45.75 58.074219 46.527344 58.484375 46.878906 58.671875 C 47.230469 58.859375 47.667969 59.085938 47.847656 59.171875 C 48.785156 59.621094 49.765625 59.46875 50.519531 58.753906 C 50.925781 58.367188 51.199219 57.820312 51.246094 57.289062 C 51.273438 56.96875 51.117188 55.84375 50.878906 54.625 C 50.84375 54.449219 50.554688 52.761719 50.234375 50.878906 C 49.660156 47.519531 48.820312 42.605469 48.566406 41.152344 C 48.359375 39.960938 48.347656 39.625 48.511719 39.191406 C 48.761719 38.519531 48.484375 38.820312 52 35.382812 C 52.738281 34.660156 53.964844 33.464844 54.71875 32.730469 C 60.804688 26.8125 61.269531 26.34375 61.480469 25.925781 C 61.644531 25.605469 61.664062 25.503906 61.664062 24.929688 C 61.664062 24.355469 61.644531 24.25 61.480469 23.914062 C 61.191406 23.328125 60.535156 22.773438 59.964844 22.632812 C 59.777344 22.589844 56.472656 22.101562 55.777344 22.015625 C 55.53125 21.984375 55.039062 21.914062 54.6875 21.863281 C 54.335938 21.808594 53.945312 21.75 53.824219 21.734375 C 53.699219 21.71875 53.398438 21.671875 53.152344 21.632812 C 52.90625 21.59375 52.589844 21.550781 52.449219 21.53125 C 52.308594 21.515625 52.121094 21.492188 52.03125 21.476562 C 51.945312 21.460938 51.554688 21.40625 51.167969 21.351562 C 50.78125 21.296875 50.160156 21.207031 49.792969 21.148438 C 48.75 20.992188 47.253906 20.769531 45.085938 20.453125 C 43.996094 20.292969 42.945312 20.117188 42.753906 20.058594 C 42.492188 19.980469 42.3125 19.863281 42.011719 19.574219 C 41.675781 19.253906 41.546875 19.058594 41.214844 18.378906 C 40.324219 16.5625 37.4375 10.71875 36.484375 8.800781 C 35.925781 7.671875 35.132812 6.066406 34.722656 5.230469 C 34.101562 3.957031 33.925781 3.652344 33.664062 3.390625 C 33.292969 3.019531 33.121094 2.925781 32.597656 2.789062 C 32.175781 2.679688 31.808594 2.671875 31.382812 2.753906 M 5.824219 11.457031 L 5.824219 11.839844 L 6.59375 11.839844 L 6.59375 11.070312 L 5.824219 11.070312 L 5.824219 11.457031 M 44.351562 17.886719 L 44.351562 18.304688 L 45.121094 18.304688 L 45.121094 17.472656 L 44.351562 17.472656 L 44.351562 17.886719 M 5.824219 18.496094 C 5.824219 18.65625 5.847656 18.6875 5.984375 18.6875 C 6.117188 18.6875 6.144531 18.65625 6.144531 18.496094 C 6.144531 18.332031 6.117188 18.304688 5.984375 18.304688 C 5.847656 18.304688 5.824219 18.332031 5.824219 18.496094 M 8.640625 20.707031 L 8.640625 21.125 L 9.007812 21.105469 L 9.375 21.089844 L 9.394531 20.6875 L 9.414062 20.289062 L 8.640625 20.289062 L 8.640625 20.707031 M 34.453125 27.441406 C 34.28125 27.578125 34.101562 27.890625 33.378906 29.28125 C 33.066406 29.878906 32.691406 30.585938 32.542969 30.847656 C 32.398438 31.113281 32.125 31.628906 31.9375 32 C 31.632812 32.609375 30.964844 33.878906 30.144531 35.425781 C 28.441406 38.617188 28.328125 38.859375 28.378906 39.132812 C 28.472656 39.632812 28.953125 39.90625 29.40625 39.714844 C 29.65625 39.613281 29.757812 39.46875 30.253906 38.527344 C 30.464844 38.125 30.789062 37.503906 30.972656 37.152344 C 31.160156 36.800781 31.511719 36.125 31.757812 35.648438 C 32.007812 35.171875 32.273438 34.667969 32.351562 34.527344 C 32.433594 34.386719 32.691406 33.898438 32.929688 33.441406 C 33.167969 32.980469 33.636719 32.089844 33.96875 31.457031 C 35.640625 28.289062 35.664062 28.238281 35.621094 27.933594 C 35.585938 27.722656 35.527344 27.621094 35.359375 27.492188 C 35.101562 27.292969 34.667969 27.269531 34.453125 27.441406 M 24.03125 30.878906 C 23.503906 31.210938 22.929688 31.574219 22.753906 31.679688 C 21.605469 32.386719 20.878906 32.898438 20.746094 33.09375 C 20.445312 33.542969 20.71875 33.964844 21.703125 34.554688 C 22.234375 34.875 23.699219 35.820312 24.105469 36.101562 C 24.253906 36.203125 24.390625 36.289062 24.410156 36.289062 C 24.433594 36.289062 24.566406 36.363281 24.707031 36.457031 C 24.984375 36.640625 25.347656 36.679688 25.589844 36.546875 C 25.78125 36.445312 25.984375 36.105469 25.984375 35.886719 C 25.984375 35.503906 25.835938 35.371094 24.320312 34.402344 C 23.503906 33.878906 22.863281 33.433594 22.890625 33.410156 C 22.921875 33.386719 23.574219 32.964844 24.347656 32.472656 C 25.269531 31.886719 25.789062 31.519531 25.867188 31.390625 C 26.175781 30.886719 25.8125 30.273438 25.199219 30.273438 C 25.039062 30.273438 24.746094 30.425781 24.03125 30.878906 M 38.386719 30.371094 C 38.042969 30.558594 37.929688 30.984375 38.117188 31.375 C 38.203125 31.558594 38.324219 31.65625 38.84375 31.96875 C 39.128906 32.140625 41.0625 33.371094 41.109375 33.410156 C 41.15625 33.449219 39.445312 34.589844 38.570312 35.101562 C 38.042969 35.410156 37.882812 35.847656 38.140625 36.269531 C 38.386719 36.667969 38.859375 36.746094 39.292969 36.457031 C 39.433594 36.363281 39.5625 36.289062 39.578125 36.289062 C 39.597656 36.289062 39.792969 36.164062 40.011719 36.015625 C 40.234375 35.867188 40.464844 35.714844 40.523438 35.679688 C 40.886719 35.464844 42.945312 34.117188 43.101562 34 C 43.363281 33.792969 43.425781 33.351562 43.238281 33.070312 C 43.117188 32.894531 42.023438 32.148438 40.511719 31.210938 C 40.320312 31.09375 39.902344 30.832031 39.589844 30.632812 C 38.976562 30.242188 38.722656 30.1875 38.386719 30.371094 M 51.199219 45.40625 C 51.199219 45.535156 51.230469 45.566406 51.359375 45.566406 C 51.488281 45.566406 51.519531 45.535156 51.519531 45.40625 C 51.519531 45.28125 51.488281 45.246094 51.359375 45.246094 C 51.230469 45.246094 51.199219 45.28125 51.199219 45.40625 M 9.023438 46.59375 C 9.023438 46.761719 9.046875 46.785156 9.214844 46.785156 C 9.386719 46.785156 9.40625 46.761719 9.40625 46.59375 C 9.40625 46.421875 9.386719 46.398438 9.214844 46.398438 C 9.046875 46.398438 9.023438 46.421875 9.023438 46.59375 M 12.609375 47.425781 C 12.609375 47.59375 12.628906 47.617188 12.800781 47.617188 C 12.96875 47.617188 12.992188 47.59375 12.992188 47.425781 C 12.992188 47.253906 12.96875 47.230469 12.800781 47.230469 C 12.628906 47.230469 12.609375 47.253906 12.609375 47.425781 M 34.753906 55.425781 C 34.753906 55.585938 34.777344 55.617188 34.910156 55.617188 C 35.046875 55.617188 35.070312 55.585938 35.070312 55.425781 C 35.070312 55.261719 35.046875 55.230469 34.910156 55.230469 C 34.777344 55.230469 34.753906 55.261719 34.753906 55.425781 M 1.40625 57.855469 C 1.40625 58.019531 1.433594 58.046875 1.566406 58.046875 C 1.703125 58.046875 1.726562 58.019531 1.726562 57.855469 C 1.726562 57.695312 1.703125 57.664062 1.566406 57.664062 C 1.433594 57.664062 1.40625 57.695312 1.40625 57.855469 M 62.015625 62.65625 C 62.015625 62.828125 62.039062 62.847656 62.207031 62.847656 C 62.378906 62.847656 62.398438 62.828125 62.398438 62.65625 C 62.398438 62.484375 62.378906 62.464844 62.207031 62.464844 C 62.039062 62.464844 62.015625 62.484375 62.015625 62.65625 "/>
</g>
</svg>
