<?xml version="1.0" encoding="UTF-8"?>
<svg xmlns="http://www.w3.org/2000/svg" width="16px" height="16px" viewBox="0 0 16 17" version="1.1">
    <circle fill-opacity="1" r="8" cx="8" cy="8.5" fill="#000000" style="stroke: rgb(0,0,0); stroke-width: 256px; stroke-opacity: 1;"/>
    <g id="surface1">
        <path style=" stroke:none;fill-rule:evenodd;fill:rgb(93.72549%,83.921569%,35.294118%);fill-opacity:1;" d="M 4.960938 0.40625 C 4.960938 0.441406 4.96875 0.449219 5.007812 0.449219 C 5.046875 0.449219 5.054688 0.441406 5.054688 0.40625 C 5.054688 0.375 5.046875 0.367188 5.007812 0.367188 C 4.96875 0.367188 4.960938 0.375 4.960938 0.40625 M 7.84375 0.6875 C 7.75 0.707031 7.699219 0.738281 7.597656 0.835938 C 7.519531 0.910156 7.488281 0.960938 7.378906 1.183594 C 7.308594 1.328125 7.058594 1.839844 6.820312 2.320312 C 6.582031 2.800781 6.269531 3.429688 6.128906 3.71875 C 5.707031 4.578125 5.617188 4.757812 5.570312 4.820312 C 5.503906 4.910156 5.398438 4.992188 5.304688 5.015625 C 5.230469 5.039062 3.601562 5.285156 3.289062 5.320312 C 3.253906 5.324219 3.164062 5.339844 3.09375 5.351562 C 3.023438 5.363281 2.929688 5.378906 2.886719 5.382812 C 2.84375 5.390625 2.761719 5.398438 2.703125 5.410156 C 2.648438 5.417969 2.570312 5.429688 2.535156 5.433594 C 2.5 5.4375 2.402344 5.453125 2.320312 5.464844 C 2.125 5.496094 2.042969 5.507812 1.550781 5.578125 C 1.046875 5.648438 0.984375 5.660156 0.898438 5.703125 C 0.796875 5.757812 0.683594 5.871094 0.628906 5.980469 C 0.589844 6.0625 0.585938 6.089844 0.585938 6.234375 C 0.585938 6.375 0.589844 6.402344 0.628906 6.480469 C 0.679688 6.582031 0.804688 6.707031 2.335938 8.199219 C 3.652344 9.476562 3.785156 9.609375 3.828125 9.695312 C 3.878906 9.785156 3.910156 9.945312 3.898438 10.035156 C 3.882812 10.152344 3.828125 10.480469 3.800781 10.621094 C 3.785156 10.691406 3.769531 10.796875 3.761719 10.851562 C 3.746094 10.953125 3.6875 11.300781 3.632812 11.609375 C 3.613281 11.703125 3.59375 11.820312 3.589844 11.863281 C 3.585938 11.90625 3.578125 11.945312 3.574219 11.953125 C 3.570312 11.960938 3.519531 12.242188 3.496094 12.398438 C 3.492188 12.421875 3.441406 12.714844 3.382812 13.046875 C 3.15625 14.390625 3.167969 14.289062 3.210938 14.429688 C 3.292969 14.710938 3.589844 14.898438 3.867188 14.847656 C 3.960938 14.832031 4.042969 14.796875 4.3125 14.652344 C 4.398438 14.605469 4.609375 14.496094 4.777344 14.410156 C 4.945312 14.320312 5.085938 14.246094 5.09375 14.242188 C 5.105469 14.234375 5.21875 14.171875 5.351562 14.101562 C 5.484375 14.035156 5.652344 13.945312 5.726562 13.90625 C 5.804688 13.867188 5.945312 13.792969 6.046875 13.738281 C 6.148438 13.6875 6.265625 13.625 6.304688 13.601562 C 6.34375 13.582031 6.496094 13.503906 6.640625 13.429688 C 6.785156 13.351562 7.019531 13.230469 7.160156 13.15625 C 7.300781 13.078125 7.460938 12.996094 7.511719 12.96875 C 7.5625 12.945312 7.617188 12.914062 7.632812 12.902344 C 7.695312 12.851562 7.875 12.796875 7.992188 12.796875 C 8.132812 12.796875 8.183594 12.8125 8.40625 12.929688 C 8.664062 13.0625 8.859375 13.164062 8.953125 13.214844 C 8.996094 13.242188 9.15625 13.324219 9.304688 13.398438 C 9.453125 13.476562 9.703125 13.605469 9.855469 13.6875 C 10.007812 13.769531 10.230469 13.882812 10.34375 13.945312 C 10.59375 14.074219 10.789062 14.179688 10.921875 14.25 C 10.972656 14.277344 11.140625 14.363281 11.289062 14.441406 C 11.4375 14.519531 11.632812 14.621094 11.71875 14.667969 C 11.808594 14.714844 11.917969 14.773438 11.960938 14.792969 C 12.195312 14.90625 12.441406 14.867188 12.628906 14.6875 C 12.730469 14.59375 12.800781 14.453125 12.8125 14.320312 C 12.820312 14.242188 12.78125 13.960938 12.71875 13.65625 C 12.710938 13.613281 12.640625 13.191406 12.558594 12.71875 C 12.414062 11.878906 12.203125 10.652344 12.140625 10.289062 C 12.089844 9.992188 12.085938 9.90625 12.128906 9.796875 C 12.191406 9.628906 12.121094 9.703125 13 8.84375 C 13.183594 8.664062 13.492188 8.367188 13.679688 8.183594 C 15.203125 6.703125 15.316406 6.585938 15.371094 6.480469 C 15.410156 6.402344 15.414062 6.375 15.414062 6.234375 C 15.414062 6.089844 15.410156 6.0625 15.371094 5.976562 C 15.296875 5.832031 15.132812 5.695312 14.992188 5.65625 C 14.945312 5.648438 14.117188 5.523438 13.945312 5.503906 C 13.882812 5.496094 13.757812 5.476562 13.671875 5.464844 C 13.585938 5.453125 13.484375 5.4375 13.457031 5.433594 C 13.425781 5.429688 13.351562 5.417969 13.289062 5.40625 C 13.226562 5.398438 13.148438 5.386719 13.113281 5.382812 C 13.078125 5.378906 13.03125 5.375 13.007812 5.367188 C 12.984375 5.367188 12.890625 5.351562 12.792969 5.335938 C 12.695312 5.324219 12.539062 5.300781 12.449219 5.289062 C 12.1875 5.25 11.8125 5.191406 11.273438 5.113281 C 11 5.074219 10.734375 5.03125 10.6875 5.015625 C 10.625 4.996094 10.578125 4.964844 10.503906 4.894531 C 10.417969 4.8125 10.386719 4.765625 10.304688 4.59375 C 10.082031 4.140625 9.359375 2.679688 9.121094 2.199219 C 8.980469 1.917969 8.78125 1.515625 8.679688 1.308594 C 8.523438 0.988281 8.480469 0.914062 8.414062 0.847656 C 8.324219 0.753906 8.28125 0.730469 8.148438 0.695312 C 8.042969 0.671875 7.953125 0.667969 7.84375 0.6875 M 1.457031 2.863281 L 1.457031 2.960938 L 1.648438 2.960938 L 1.648438 2.765625 L 1.457031 2.765625 L 1.457031 2.863281 M 11.085938 4.472656 L 11.085938 4.578125 L 11.28125 4.578125 L 11.28125 4.367188 L 11.085938 4.367188 L 11.085938 4.472656 M 1.457031 4.625 C 1.457031 4.664062 1.460938 4.671875 1.496094 4.671875 C 1.53125 4.671875 1.535156 4.664062 1.535156 4.625 C 1.535156 4.582031 1.53125 4.578125 1.496094 4.578125 C 1.460938 4.578125 1.457031 4.582031 1.457031 4.625 M 2.160156 5.175781 L 2.160156 5.28125 L 2.25 5.277344 L 2.34375 5.273438 L 2.351562 5.070312 L 2.160156 5.070312 L 2.160156 5.175781 M 8.613281 6.859375 C 8.570312 6.894531 8.523438 6.972656 8.34375 7.320312 C 8.265625 7.46875 8.171875 7.648438 8.136719 7.710938 C 8.101562 7.777344 8.03125 7.90625 7.984375 8 C 7.90625 8.152344 7.742188 8.46875 7.535156 8.855469 C 7.109375 9.65625 7.082031 9.714844 7.09375 9.78125 C 7.117188 9.90625 7.238281 9.976562 7.351562 9.929688 C 7.414062 9.902344 7.4375 9.867188 7.5625 9.632812 C 7.617188 9.53125 7.695312 9.375 7.742188 9.289062 C 7.789062 9.199219 7.878906 9.03125 7.9375 8.914062 C 8 8.792969 8.070312 8.667969 8.085938 8.632812 C 8.109375 8.597656 8.171875 8.476562 8.234375 8.359375 C 8.292969 8.246094 8.410156 8.023438 8.492188 7.863281 C 8.910156 7.070312 8.914062 7.058594 8.90625 6.984375 C 8.898438 6.929688 8.882812 6.90625 8.839844 6.875 C 8.773438 6.824219 8.667969 6.816406 8.613281 6.859375 M 6.007812 7.71875 C 5.875 7.804688 5.734375 7.894531 5.6875 7.921875 C 5.402344 8.097656 5.21875 8.226562 5.1875 8.273438 C 5.109375 8.386719 5.179688 8.492188 5.425781 8.640625 C 5.558594 8.71875 5.925781 8.953125 6.027344 9.023438 C 6.0625 9.050781 6.097656 9.070312 6.101562 9.070312 C 6.109375 9.070312 6.140625 9.089844 6.175781 9.113281 C 6.246094 9.160156 6.335938 9.171875 6.398438 9.136719 C 6.445312 9.109375 6.496094 9.027344 6.496094 8.972656 C 6.496094 8.875 6.460938 8.84375 6.078125 8.601562 C 5.875 8.46875 5.714844 8.359375 5.722656 8.351562 C 5.730469 8.347656 5.894531 8.242188 6.085938 8.117188 C 6.316406 7.972656 6.445312 7.878906 6.46875 7.847656 C 6.542969 7.722656 6.453125 7.570312 6.300781 7.570312 C 6.257812 7.570312 6.1875 7.605469 6.007812 7.71875 M 9.597656 7.59375 C 9.511719 7.640625 9.484375 7.746094 9.53125 7.84375 C 9.550781 7.890625 9.582031 7.914062 9.710938 7.992188 C 9.78125 8.035156 10.265625 8.34375 10.277344 8.351562 C 10.289062 8.363281 9.859375 8.648438 9.640625 8.773438 C 9.511719 8.851562 9.46875 8.960938 9.535156 9.066406 C 9.597656 9.167969 9.714844 9.1875 9.824219 9.113281 C 9.859375 9.089844 9.890625 9.070312 9.894531 9.070312 C 9.898438 9.070312 9.949219 9.039062 10.003906 9.003906 C 10.058594 8.96875 10.117188 8.929688 10.132812 8.921875 C 10.222656 8.867188 10.734375 8.53125 10.773438 8.5 C 10.839844 8.449219 10.855469 8.335938 10.808594 8.265625 C 10.78125 8.222656 10.507812 8.039062 10.128906 7.804688 C 10.078125 7.773438 9.976562 7.707031 9.898438 7.65625 C 9.742188 7.5625 9.679688 7.546875 9.597656 7.59375 M 12.800781 11.351562 C 12.800781 11.382812 12.808594 11.390625 12.839844 11.390625 C 12.871094 11.390625 12.878906 11.382812 12.878906 11.351562 C 12.878906 11.320312 12.871094 11.3125 12.839844 11.3125 C 12.808594 11.3125 12.800781 11.320312 12.800781 11.351562 M 2.257812 11.648438 C 2.257812 11.691406 2.261719 11.695312 2.304688 11.695312 C 2.347656 11.695312 2.351562 11.691406 2.351562 11.648438 C 2.351562 11.605469 2.347656 11.601562 2.304688 11.601562 C 2.261719 11.601562 2.257812 11.605469 2.257812 11.648438 M 3.152344 11.855469 C 3.152344 11.898438 3.15625 11.90625 3.199219 11.90625 C 3.242188 11.90625 3.25 11.898438 3.25 11.855469 C 3.25 11.8125 3.242188 11.808594 3.199219 11.808594 C 3.15625 11.808594 3.152344 11.8125 3.152344 11.855469 M 8.6875 13.855469 C 8.6875 13.898438 8.695312 13.90625 8.726562 13.90625 C 8.761719 13.90625 8.765625 13.898438 8.765625 13.855469 C 8.765625 13.816406 8.761719 13.808594 8.726562 13.808594 C 8.695312 13.808594 8.6875 13.816406 8.6875 13.855469 M 0.351562 14.464844 C 0.351562 14.503906 0.359375 14.511719 0.390625 14.511719 C 0.425781 14.511719 0.429688 14.503906 0.429688 14.464844 C 0.429688 14.421875 0.425781 14.414062 0.390625 14.414062 C 0.359375 14.414062 0.351562 14.421875 0.351562 14.464844 M 15.503906 15.664062 C 15.503906 15.707031 15.507812 15.710938 15.550781 15.710938 C 15.59375 15.710938 15.601562 15.707031 15.601562 15.664062 C 15.601562 15.621094 15.59375 15.617188 15.550781 15.617188 C 15.507812 15.617188 15.503906 15.621094 15.503906 15.664062 "/>
    </g>
</svg>
